# xmcd
#
# Track frame offsets: 
#        150
#        15937
#        30702
#        47327
#        62480
#        77497
#        94397
#        109740
#        123717
#        136065
#        152907
#        167057
#        182652
#        197720
#
# Disc length: 2871 seconds
#
# Revision: 3
# Processed by: cddbd v1.5PL3 Copyright (c) Steve Scherf et al.
# Submitted via: ExactAudioCopy v0.95a3
#
DISCID=ac0b350e
DTITLE=Linda Davis - I'm Yours
DYEAR=1998
DGENRE=Country
TTITLE0=I'm Yours
TTITLE1=From The Inside Out
TTITLE2=Love Story In The Making
TTITLE3=After A Kiss
TTITLE4=Company Time
TTITLE5=I Wanna Remember This
TTITLE6=Three Way Tie
TTITLE7=I Took The Torch Out Of His Old Flame
TTITLE8=Love Didn't Do It
TTITLE9=Through The Cracks
TTITLE10=In Pictures
TTITLE11=What Do I Know
TTITLE12=Some Things Are Meant To Be
TTITLE13=Make It Throught
EXTD=YEAR: 2001  ID3G:   2
EXTT0=
EXTT1=
EXTT2=
EXTT3=
EXTT4=
EXTT5=
EXTT6=
EXTT7=
EXTT8=
EXTT9=
EXTT10=
EXTT11=
EXTT12=
EXTT13=
PLAYORDER=
